<svg width="32" height="32" viewBox="0 0 32 32" fill="none" xmlns="http://www.w3.org/2000/svg">
<g clip-path="url(#clip0_40_7)">
<path d="M0.0600125 31.66V0.300024C0.0600125 0.140022 0.140012 0.0600219 0.300012 0.0600219H5.02001C5.18001 0.0600219 5.26001 0.140022 5.26001 0.300024V8.50002C5.26001 8.66002 5.18001 8.74002 5.02001 8.74002H3.66001C3.50001 8.74002 3.42001 8.66002 3.42001 8.50002V1.86002H1.86001V30.1H3.42001V23.5C3.42001 23.34 3.50001 23.26 3.66001 23.26H5.02001C5.18001 23.26 5.26001 23.34 5.26001 23.5V31.66C5.26001 31.82 5.18001 31.9 5.02001 31.9H0.300012C0.140012 31.9 0.0600125 31.82 0.0600125 31.66ZM14.1322 30.34V31.66C14.1322 31.82 14.0522 31.9 13.8922 31.9H9.1722C9.0122 31.9 8.9322 31.82 8.9322 31.66V0.300024C8.9322 0.140022 9.0122 0.0600219 9.1722 0.0600219H10.4922C10.6522 0.0600219 10.7322 0.140022 10.7322 0.300024V30.1H13.8922C14.0522 30.1 14.1322 30.18 14.1322 30.34ZM22.7644 31.9H21.4044C21.2444 31.9 21.1644 31.82 21.1644 31.66V15.54H19.6044V31.66C19.6044 31.82 19.5244 31.9 19.3644 31.9H18.0444C17.8844 31.9 17.8044 31.82 17.8044 31.66V0.300024C17.8044 0.140022 17.8844 0.0600219 18.0444 0.0600219H22.7644C22.9244 0.0600219 23.0044 0.140022 23.0044 0.300024V31.66C23.0044 31.82 22.9244 31.9 22.7644 31.9ZM19.6044 13.78H21.1644V1.86002H19.6044V13.78ZM31.6366 0.0600219C31.7966 0.0600219 31.8766 0.140022 31.8766 0.300024V15.3C31.8766 15.46 31.7966 15.54 31.6366 15.54H30.1566V31.66C30.1566 31.82 30.0766 31.9 29.9166 31.9H28.5966C28.4366 31.9 28.3566 31.82 28.3566 31.66V15.54H26.9166C26.7566 15.54 26.6766 15.46 26.6766 15.3V0.300024C26.6766 0.140022 26.7566 0.0600219 26.9166 0.0600219H28.2366C28.3966 0.0600219 28.4766 0.140022 28.4766 0.300024V13.74H30.0366V0.300024C30.0366 0.140022 30.1166 0.0600219 30.2766 0.0600219H31.6366Z" fill="black"/>
</g>
<defs>
<clipPath id="clip0_40_7">
<rect width="32" height="32" fill="white"/>
</clipPath>
</defs>
</svg>
